<svg height="512pt" viewBox="0 -62 512 511" width="512pt" xmlns="http://www.w3.org/2000/svg"><path d="m341.820312 73.9375c13.261719 6.882812 25.601563 15.3125 36.769532 25.046875l39.289062-37.015625c-16.695312-15-35.136718-27.445312-54.847656-37.15625zm0 0"/><path d="m486.847656 167.8125-51.839844 18.808594c4.402344 14.851562 7.003907 30.472656 7.542969 46.605468l55.71875-2.34375c-1.027343-21.6875-4.898437-42.851562-11.421875-63.070312zm0 0"/><path d="m399.5625 120.445312c9.675781 11.625 17.96875 24.4375 24.621094 38.1875l51.675781-18.746093c-9.5-20.304688-21.875-39.320313-36.914063-56.546875zm0 0"/><path d="m412.667969 293.105469v-53.570313c0-86.261718-70.183594-156.441406-156.445313-156.441406-86.261718 0-156.441406 70.179688-156.441406 156.441406v53.570313h85.789062c-9.128906-15.335938-16.625-39.5-6.378906-72.289063l4.65625-14.90625 27.042969 9.660156c.214844-5.257812.78125-11.09375 1.925781-17.25 5.730469-30.8125 22.996094-55.433593 49.933594-71.191406l20.414062-11.945312 2.101563 23.558594c.355469 3.992187.523437 7.824218.683594 11.53125.378906 8.710937.707031 16.230468 3.289062 23.242187 3.109375 8.449219 8.4375 16.871094 16.765625 26.503906l1.386719 1.601563c12.949219 14.953125 27.625 31.902344 30.433594 55.851562 1.3125 11.191406-.988281 23.976563-5.859375 35.636719h80.703125zm0 0"/><path d="m204.582031 245.171875c-1.316406 13.023437 1.410157 24.6875 8.15625 34.8125 4.320313 6.476563 9.316407 10.832031 12.339844 13.121094h72.523437c6.90625-8.632813 11.566407-22.398438 10.421876-32.136719-1.734376-14.78125-12.214844-26.890625-23.316407-39.707031l-1.402343-1.625c-10.765626-12.449219-17.828126-23.8125-22.226563-35.757813-1.707031-4.644531-2.800781-9.234375-3.523437-13.710937-22.539063 27.472656-16.085938 62.371093-15.734376 64.167969l5.367188 26.113281-25.117188-9.03125zm0 0"/><path d="m69.78125 263.484375-56.328125-2.371094v31.992188h56.328125zm0 0"/><path d="m88.160156 158.851562c6.597656-13.6875 14.816406-26.449218 24.410156-38.035156l-39.632812-37.34375c-15.007812 17.214844-27.351562 36.210938-36.835938 56.492188zm0 0"/><path d="m498.546875 260.894531-55.878906 2.351563v29.859375h55.878906zm0 0"/><path d="m69.890625 233.464844c.519531-16.136719 3.097656-31.757813 7.480469-46.613282l-52.242188-18.953124c-6.53125 20.257812-10.398437 41.46875-11.402344 63.199218zm0 0"/><path d="m0 323.105469h512v64.484375h-512zm0 0"/><path d="m271.222656 53.699219c14.871094 1.1875 29.25 4.136719 42.9375 8.621093l21.175782-49.050781c-20.5-7.074219-42.023438-11.382812-64.113282-12.742187zm0 0"/><path d="m133.492188 99.308594c11.105468-9.730469 23.371093-18.160156 36.558593-25.066406l-21.296875-49.324219c-19.679687 9.71875-38.097656 22.171875-54.765625 37.171875zm0 0"/><path d="m197.667969 62.523438c13.871093-4.601563 28.464843-7.617188 43.554687-8.824219v-53.199219c-22.328125 1.332031-44.082031 5.679688-64.789062 12.847656zm0 0"/></svg>